HIERARCHY
ROOT hip
{
	OFFSET	0.00  0.00  0.00 
	CHANNELS 6 Xposition Yposition Zposition Xrotation Zrotation Yrotation
	JOINT abdomen
	{
		OFFSET	0.000000 0.000000 0.000000
		CHANNELS 3 Xrotation Zrotation Yrotation
		JOINT chest
		{
			OFFSET	0.000000 4.862840 -1.823974
			CHANNELS 3 Xrotation Zrotation Yrotation
			JOINT neckDummy
			{
				OFFSET	0.000000 8.059053 0.760605
				CHANNELS 3 Xrotation Yrotation Zrotation
				JOINT neck
				{
					OFFSET	0.000000 2.209834 -0.380644
					CHANNELS 3 Xrotation Zrotation Yrotation
					JOINT head
					{
						OFFSET	0.000000 3.388650 0.513082
						CHANNELS 3 Xrotation Zrotation Yrotation
						End Site
						{
							OFFSET 0.000000 10.033302 0.000000
						}
					}
				}
			}
			JOINT lCollar
			{
				OFFSET	0.580691 8.059053 0.760605
				CHANNELS 3 Yrotation Zrotation Xrotation
				JOINT lShldr
				{
					OFFSET	6.222462 0.009832 -0.321848
					CHANNELS 3 Zrotation Yrotation Xrotation
					JOINT lForeArm
					{
						OFFSET	10.220657 0.024782 0.183730
						CHANNELS 3 Yrotation Zrotation Xrotation
						JOINT lHand
						{
							OFFSET	10.719483 0.309727 0.636712
							CHANNELS 3 Zrotation Yrotation Xrotation
							End Site
							{
								OFFSET 10.033305 0.000000 0.000000
							}
						}
					}
				}
			}
			JOINT rCollar
			{
				OFFSET	-0.580691 8.059053 0.760605
				CHANNELS 3 Yrotation Zrotation Xrotation
				JOINT rShldr
				{
					OFFSET	-6.222462 0.009832 -0.321848
					CHANNELS 3 Zrotation Yrotation Xrotation
					JOINT rForeArm
					{
						OFFSET	-10.220657 0.024782 0.183730
						CHANNELS 3 Yrotation Zrotation Xrotation
						JOINT rHand
						{
							OFFSET	-10.719483 0.309727 0.636712
							CHANNELS 3 Zrotation Yrotation Xrotation
							End Site
							{
								OFFSET -10.033305 0.000000 0.000000
							}
						}
					}
				}
			}
		}
	}
	JOINT lThigh
	{
		OFFSET	4.361177 -6.202389 -1.775974
		CHANNELS 3 Xrotation Zrotation Yrotation
		JOINT lShin
		{
			OFFSET	-1.317052 -18.333157 1.143369
			CHANNELS 3 Xrotation Zrotation Yrotation
			JOINT lFoot
			{
				OFFSET	-0.636132 -16.703447 -0.302338
				CHANNELS 3 Xrotation Yrotation Zrotation
				End Site
				{
					OFFSET 0.000000 -2.207327 5.819317
				}
			}
		}
	}
	JOINT rThigh
	{
		OFFSET	-4.361177 -6.202389 -1.775974
		CHANNELS 3 Xrotation Zrotation Yrotation
		JOINT rShin
		{
			OFFSET	1.317052 -18.333157 1.143369
			CHANNELS 3 Xrotation Zrotation Yrotation
			JOINT rFoot
			{
				OFFSET	0.636132 -16.703447 -0.302338
				CHANNELS 3 Xrotation Yrotation Zrotation
				End Site
				{
					OFFSET 0.000000 -2.207327 5.819317
				}
			}
		}
	}
}
MOTION
Frames:     14
Frame Time: 0.011111
4.649291 44.045547 -93.677605 0.000000 0.000000 0.000000 18.665894 0.444293 0.255457 -18.664465 -0.502666 -0.099807 0.000000 0.000000 0.000000 -8.454148 0.732361 -0.166799 0.000000 0.000000 0.000000 -5.788594 -15.737329 -1.465587 22.403006 -24.986931 3.940655 -25.613224 -1.647971 0.049003 8.524705 12.647240 -45.472057 7.611086 14.174596 -1.900835 -20.962793 18.285137 2.519602 25.603458 1.647971 0.048722 -8.534408 -12.637552 44.535015 4.215934 8.931242 2.962551 -0.118524 -5.950266 -0.672067 -4.998961 -0.519361 -3.239223 4.225246 -8.968497 -3.006059 -0.107304 5.940478 0.664368 -5.005409 0.504828 3.222481 
4.649291 44.045547 -93.677605 18.759539 -6.249130 3.593447 1.897976 3.652151 2.253308 -25.549238 -0.695692 0.386757 0.000000 0.000000 0.000000 -19.422314 -0.787919 -0.749359 57.659370 7.354060 2.211459 -5.788594 -15.737329 -1.465587 52.462032 -51.017605 -38.668697 -52.572311 8.243967 9.206460 8.524705 12.647240 -63.890026 7.611086 14.174596 -1.900835 -44.784912 46.210079 -32.222408 49.360912 -7.558224 7.904924 -8.534408 -12.637552 38.499855 -32.468960 0.800361 -0.832623 40.275635 -4.640821 -6.137723 -50.117088 5.789717 9.087181 -65.228134 1.201259 -1.918216 43.614281 4.358163 6.499598 -30.095921 -34.291496 -11.644193 
4.653007 44.059555 -93.639297 18.772190 -6.226658 3.795143 1.749407 3.625917 2.006362 -25.012209 -0.569885 0.306874 0.000000 0.000000 0.000000 -19.373579 -0.805848 -0.744179 57.081074 7.186175 2.070647 -5.788594 -15.737329 -1.465587 54.053375 -51.277298 -40.625633 -53.234585 8.367156 9.480158 8.524705 12.647240 -63.245495 7.611086 14.174596 -1.900835 -46.354717 46.587017 -34.300369 49.704597 -7.637573 8.042046 -8.534408 -12.637552 38.353371 -32.294323 0.751178 -0.698588 40.118237 -4.634364 -6.141220 -49.892822 5.837027 8.996251 -65.390114 1.113596 -1.537953 43.653965 4.348395 6.508978 -31.915005 -33.455418 -12.611694 
4.660725 44.069275 -93.614998 18.883322 -6.356850 4.082151 1.796180 3.780851 1.888666 -25.900892 -0.764964 0.291830 0.000000 0.000000 0.000000 -18.758570 -0.769026 -0.822591 57.032700 7.261518 1.965647 -5.788594 -15.737329 -1.465587 55.241501 -52.062489 -41.177055 -54.025959 8.512213 9.808452 8.524705 12.647240 -62.161510 7.611086 14.174596 -1.900835 -47.186787 46.956654 -35.042896 50.237740 -7.764135 8.257939 -8.534408 -12.637552 38.294781 -32.412125 0.829310 -0.611581 40.079224 -4.634517 -6.128193 -49.569458 6.114046 9.062187 -65.682381 1.084298 -1.147938 43.672840 4.358270 6.514371 -32.914722 -33.141022 -13.206156 
4.655580 44.072990 -93.592133 19.038168 -6.427886 4.447041 1.725087 3.734566 1.813486 -26.516258 -0.968944 0.299010 0.000000 0.000000 0.000000 -18.251539 -0.753479 -0.962451 56.811794 7.526855 1.844910 -5.788594 -15.737329 -1.465587 56.500843 -52.986317 -41.783318 -54.911213 8.653127 10.177494 8.524705 12.647240 -60.882217 7.611086 14.174596 -1.900835 -48.029545 47.150341 -35.772854 50.791615 -7.887207 8.487917 -8.534408 -12.637552 38.529156 -32.564369 0.829874 -0.552931 39.989887 -4.650425 -6.105786 -49.181999 6.289198 9.016479 -66.107483 1.044814 -0.549955 43.731590 4.355557 6.528281 -34.851315 -32.492889 -14.284584 
4.647861 44.072132 -93.570694 19.232847 -6.487087 4.492517 1.783638 3.731974 1.736074 -26.623644 -0.826012 0.261207 0.000000 0.000000 0.000000 -18.593119 -0.758114 -0.922693 56.814915 7.436451 1.854455 -5.788594 -15.737329 -1.465587 57.768074 -53.358116 -43.113911 -55.747360 8.784339 10.538491 8.524705 12.647240 -60.013073 7.611086 14.174596 -1.900835 -49.364174 47.387550 -36.579773 51.440830 -8.025834 8.750308 -8.534408 -12.637552 39.740093 -32.771641 0.868546 -0.595618 39.949932 -4.663763 -6.087701 -49.056534 6.298404 8.959727 -66.383270 1.054910 -0.406615 43.723751 4.338688 6.501569 -36.268879 -31.530458 -14.976959 
4.645003 44.070133 -93.544678 19.579821 -6.363581 4.755941 1.027282 3.515275 1.505914 -26.594358 -0.783173 0.215361 0.000000 0.000000 0.000000 -17.255014 -0.671887 -0.968222 55.773933 7.355426 1.727729 -5.788594 -15.737329 -1.465587 58.845673 -54.048798 -43.842751 -56.647186 8.907766 10.918694 8.524705 12.647240 -59.192760 7.611086 14.174596 -1.900835 -50.247528 47.639256 -36.874981 52.227493 -8.184830 9.069823 -8.534408 -12.637552 40.941265 -33.072868 0.693272 -0.476553 39.899822 -4.670134 -6.095279 -48.658543 6.486096 8.897586 -66.689743 0.429541 -0.999067 43.780331 4.355637 6.542199 -35.947033 -31.068619 -14.600047 
4.647004 44.064411 -93.516655 19.780367 -6.386630 4.865771 1.103769 3.537235 1.370511 -26.828777 -0.797500 0.181283 0.000000 0.000000 0.000000 -17.636021 -0.692404 -0.974528 56.111519 7.313986 1.681261 -5.788594 -15.737329 -1.465587 60.084103 -54.450672 -44.992886 -57.528622 9.023381 11.310830 8.524705 12.647240 -58.479874 7.611086 14.174596 -1.900835 -51.327656 48.086922 -38.566605 52.732208 -8.284222 9.276519 -8.534408 -12.637552 40.990093 -33.275616 0.673206 -0.428653 39.900089 -4.663864 -6.102826 -48.576542 6.463472 8.827544 -66.763275 0.078270 -1.673251 43.732815 4.348547 6.506118 -34.832443 -31.302378 -13.940694 
4.652435 44.050976 -93.481499 19.942558 -6.503835 5.017610 1.149646 3.776093 1.084240 -27.004597 -0.782117 0.082856 0.000000 0.000000 0.000000 -17.539612 -0.998795 -0.848854 55.709438 7.556940 1.898881 -5.788594 -15.737329 -1.465587 61.180653 -54.778931 -46.270653 -58.420166 9.121294 11.702325 8.524705 12.647240 -58.059948 7.611086 14.174596 -1.900835 -52.418137 48.856747 -40.590660 53.152855 -8.363141 9.454770 -8.534408 -12.637552 40.745956 -33.451096 0.741777 -0.451547 39.890320 -4.670125 -6.084743 -48.563725 6.276447 8.675844 -66.759842 -0.253699 -2.463796 43.713268 4.338660 6.520051 -34.173504 -31.183115 -13.481495 
4.648433 44.044403 -93.447479 20.139236 -6.540495 5.217175 1.206433 3.756419 1.012548 -28.362307 -0.967764 0.103727 0.000000 0.000000 0.000000 -15.446167 -1.739040 -0.862301 54.051281 8.993819 2.201820 -5.788594 -15.737329 -1.465587 61.863831 -56.037788 -46.473892 -59.282284 9.208524 12.083817 8.524705 12.647240 -57.561905 7.611086 14.174596 -1.900835 -52.627476 49.322731 -40.017143 54.037903 -8.521312 9.827300 -8.534408 -12.637552 42.240089 -33.607014 0.760992 -0.319822 39.900688 -4.654041 -6.109182 -48.441563 6.060694 8.421082 -66.756432 -0.673727 -3.184745 43.683407 4.348452 6.511530 -34.348988 -30.273554 -13.324773 
4.652721 44.044403 -93.406319 20.341017 -6.478831 5.453634 1.357710 3.647640 0.633187 -28.078957 -0.849361 -0.019756 0.000000 0.000000 0.000000 -16.675131 -1.564453 -0.824860 54.506653 8.794069 2.239360 -5.788594 -15.737329 -1.465587 63.273979 -55.995079 -48.019814 -60.079655 9.272487 12.428241 8.524705 12.647240 -57.161514 7.611086 14.174596 -1.900835 -53.879894 49.519455 -41.836514 54.787407 -8.645933 10.141148 -8.534408 -12.637552 43.118999 -33.693954 0.673389 -0.129205 39.879555 -4.679914 -6.087200 -48.146427 5.986217 8.200079 -66.791466 -1.181245 -3.830588 43.684078 4.348458 6.492197 -34.269905 -29.618132 -13.079203 
4.661011 44.032684 -93.352005 20.465075 -6.483867 5.504355 0.955375 3.636294 0.529130 -28.215765 -0.940939 -0.032041 0.000000 0.000000 0.000000 -15.737245 -1.511680 -0.894381 53.908421 8.938175 2.186372 -5.788594 -15.737329 -1.465587 64.242378 -56.491810 -48.091152 -60.899837 9.331516 12.795998 8.524705 12.647240 -56.302135 7.611086 14.174596 -1.900835 -54.417919 50.020767 -42.400242 55.443077 -8.749792 10.424271 -8.534408 -12.637552 43.783062 -33.710201 0.721743 0.024450 39.811558 -4.663976 -6.095186 -47.953739 5.937051 8.041407 -66.721382 -1.475101 -4.448272 43.740608 4.378901 6.508904 -34.511330 -28.794851 -12.953875 
4.660725 44.030109 -93.324844 20.630873 -6.578537 5.748238 0.805762 3.681026 0.313226 -28.391636 -1.019959 -0.084986 0.000000 0.000000 0.000000 -15.375666 -1.471972 -0.928284 53.598778 9.095475 2.183827 -5.788594 -15.737329 -1.465587 65.326820 -56.922890 -48.519173 -61.571690 9.373340 13.104091 8.524705 12.647240 -55.354874 7.611086 14.174596 -1.900835 -55.017464 50.381458 -43.159069 56.151691 -8.850648 10.723586 -8.534408 -12.637552 44.417828 -33.808796 0.839221 0.350272 39.752029 -4.679850 -6.066389 -47.365856 6.027646 7.839602 -66.700996 -1.874875 -5.235490 43.800259 4.365052 6.518241 -34.221371 -28.452551 -12.645749 
4.663584 44.025818 -93.285118 20.739950 -6.515173 5.868445 0.717089 3.498926 0.260770 -28.714180 -1.168065 -0.072929 0.000000 0.000000 0.000000 -14.740376 -1.343602 -1.034644 53.272579 9.317636 2.120795 -5.788594 -15.737329 -1.465587 66.374779 -57.660301 -49.073784 -62.105400 9.401322 13.345486 8.524705 12.647240 -54.759167 7.611086 14.174596 -1.900835 -55.361538 50.658020 -43.546574 56.914288 -8.951180 11.051081 -8.534408 -12.637552 45.150246 -33.765720 0.819909 0.679468 39.701920 -4.689546 -6.065377 -46.981632 5.964163 7.596928 -66.605194 -2.236232 -5.860781 43.861397 4.335644 6.512228 -33.408695 -28.905937 -12.286180 
